<?xml version="1.0" standalone="no"?>
<!DOCTYPE svg PUBLIC "-//W3C//DTD SVG 20010904//EN"
 "http://www.w3.org/TR/2001/REC-SVG-20010904/DTD/svg10.dtd">
<svg version="1.0" xmlns="http://www.w3.org/2000/svg"
 width="640.000000pt" height="640.000000pt" viewBox="0 0 640.000000 640.000000"
 preserveAspectRatio="xMidYMid meet">
<metadata>
Created by potrace 1.11, written by Peter Selinger 2001-2013
</metadata>
<g transform="translate(0.000000,640.000000) scale(0.100000,-0.100000)"
fill="#000000" stroke="none">
<path d="M2689 5725 c-1 0 -2 -110 -3 -244 -1 -205 -3 -245 -16 -252 -8 -4
-58 -20 -110 -34 -113 -31 -291 -116 -375 -180 -247 -187 -406 -459 -470 -803
-2 -12 -7 -59 -11 -105 -32 -355 34 -673 187 -898 45 -66 175 -202 244 -255
139 -105 285 -186 470 -258 l80 -32 0 -672 c0 -541 -2 -671 -13 -667 -26 10
-140 91 -212 151 -80 66 -213 201 -270 273 -19 24 -40 49 -45 55 -16 17 -127
183 -176 261 -23 39 -78 138 -120 220 l-78 150 -45 1 c-43 1 -46 0 -47 -25 -1
-14 -1 -29 -1 -32 1 -9 11 -257 17 -414 3 -71 7 -188 10 -260 3 -71 7 -186 10
-255 11 -294 17 -395 21 -399 2 -2 19 -5 38 -7 30 -2 36 2 47 30 23 56 67 113
102 129 27 13 45 15 88 7 59 -9 188 -34 259 -49 25 -6 122 -24 215 -41 94 -17
177 -35 185 -39 12 -7 15 -40 16 -197 1 -104 2 -193 3 -199 0 -6 32 -8 83 -5
l82 5 -1 188 -1 188 77 -7 c42 -4 125 -8 186 -8 l110 -1 0 -180 0 -180 85 -3
85 -3 0 193 0 192 130 36 c353 97 616 312 778 635 70 140 126 345 144 523 15
150 6 371 -22 527 -25 138 -107 328 -189 434 -138 179 -402 357 -706 475 -52
20 -104 41 -116 46 -21 8 -21 9 -21 623 0 510 2 614 14 610 7 -3 13 -9 13 -14
0 -5 5 -9 10 -9 22 0 185 -157 270 -260 126 -151 306 -431 418 -651 12 -22 20
-26 55 -25 l42 2 -1 114 c-1 134 -18 652 -29 875 -2 39 -3 98 -4 132 -1 62 -1
62 -31 61 -23 -1 -35 -10 -56 -43 -40 -64 -72 -79 -158 -71 -39 3 -123 20
-186 37 -63 17 -169 46 -235 63 l-120 32 -2 250 c-1 137 -2 252 -2 255 -1 3
-38 5 -83 4 l-83 0 0 -242 0 -243 -50 7 c-27 4 -111 7 -186 7 l-136 0 -1 215
c0 119 0 225 -1 236 -1 19 -7 21 -81 20 -44 0 -81 0 -81 0z m391 -604 c25 -7
68 -21 95 -32 l50 -19 0 -634 0 -635 -30 6 c-29 5 -54 12 -245 71 l-95 28 -1
612 -1 611 21 4 c40 6 161 -1 206 -12z m-395 -581 c0 -308 -4 -560 -8 -560 -5
0 -44 18 -86 40 -271 141 -393 366 -344 634 31 171 158 332 320 406 26 12 55
25 63 30 8 5 24 9 35 9 20 1 20 -5 20 -559z m329 -1980 c80 -27 161 -56 179
-63 l32 -14 0 -654 0 -654 -65 0 c-92 1 -156 11 -236 38 l-69 23 -1 687 c0
378 2 687 6 687 4 0 73 -22 154 -50z m437 -171 c80 -39 193 -122 259 -190 119
-122 173 -258 172 -429 -1 -210 -98 -378 -281 -487 -61 -37 -172 -83 -199 -83
-5 0 -9 272 -9 605 0 333 3 605 7 605 3 0 26 -10 51 -21z"/>
</g>
</svg>
