<?xml version="1.0" standalone="no"?>
<!DOCTYPE svg PUBLIC "-//W3C//DTD SVG 20010904//EN"
 "http://www.w3.org/TR/2001/REC-SVG-20010904/DTD/svg10.dtd">
<svg version="1.0" xmlns="http://www.w3.org/2000/svg"
 width="964.000000pt" height="964.000000pt" viewBox="0 0 964.000000 964.000000"
 preserveAspectRatio="xMidYMid meet">
<metadata>
Created by potrace 1.11, written by Peter Selinger 2001-2013
</metadata>
<g transform="translate(0.000000,964.000000) scale(0.100000,-0.100000)"
fill="#000000" stroke="none">
<path d="M324 7825 c-134 -29 -242 -119 -284 -236 l-13 -36 265 -399 c932
-1404 868 -1304 837 -1304 -16 0 -29 5 -29 10 0 9 -148 233 -865 1315 l-220
330 -7 -40 c-4 -22 -7 -1217 -7 -2655 -1 -2805 -3 -2658 49 -2760 28 -55 118
-150 179 -189 25 -16 70 -36 100 -45 50 -15 469 -16 4512 -16 4417 0 4457 0
4520 20 119 37 222 140 259 259 20 62 20 99 20 2720 0 2933 5 2708 -62 2813
-37 59 -136 151 -191 180 -97 49 -62 48 -1364 48 l-1223 0 0 -3000 0 -3000
-100 0 -100 0 0 978 1 977 29 34 28 33 44 -16 c42 -16 44 -19 40 -52 l-4 -34
-54 0 c-42 0 -54 -3 -54 -15 0 -13 12 -15 68 -13 l67 3 1 57 c2 48 -1 58 -17
63 -27 9 -26 61 1 68 20 5 28 27 10 27 -6 0 -27 -7 -47 -15 -46 -19 -53 -19
-53 3 -1 9 -7 -1 -15 -23 -30 -87 -167 -163 -225 -125 -13 8 -12 10 3 10 63 0
161 92 182 169 13 50 14 146 1 158 -3 4 -6 840 -6 1860 l0 1853 -3107 -1
c-2546 0 -3119 -3 -3169 -14z m2263 -496 c46 -22 70 -55 74 -104 5 -71 -1 -95
-37 -135 -25 -27 -31 -40 -21 -40 21 0 75 -46 91 -79 41 -80 25 -185 -38 -247
-54 -55 -92 -64 -258 -64 l-138 0 0 345 0 345 142 0 c124 0 147 -3 185 -21z
m599 -314 c57 -181 104 -336 104 -343 0 -9 -12 -12 -41 -10 l-42 3 -27 90 -26
90 -129 0 -129 0 -28 -92 -29 -93 -39 0 c-22 0 -40 4 -40 8 0 4 31 107 69 227
38 121 85 273 106 338 l36 118 56 -3 56 -3 103 -330z m448 62 l121 -268 3 270
2 271 40 0 40 0 0 -346 0 -345 -51 3 -52 3 -136 300 -136 299 -3 -302 -2 -302
-40 0 -40 0 0 345 0 346 66 -3 66 -3 122 -268z m448 98 l3 -174 139 174 139
175 50 0 49 0 -68 -82 c-38 -46 -97 -118 -132 -160 -40 -49 -61 -82 -56 -90 4
-7 62 -85 129 -173 67 -88 125 -166 129 -172 5 -10 -5 -13 -43 -13 l-50 0
-112 148 c-62 81 -114 149 -116 152 -3 3 -18 -10 -34 -28 -29 -32 -29 -34 -29
-152 l0 -120 -40 0 -40 0 0 345 0 345 40 0 40 0 2 -175z m-2957 14 c60 -17
119 -82 140 -153 40 -136 -1 -306 -85 -362 -75 -50 -168 -44 -232 14 -52 47
-78 108 -85 200 -11 142 47 264 142 297 49 17 69 18 120 4z m346 -191 c1 -101
4 -194 8 -207 3 -13 18 -33 33 -44 32 -24 79 -18 129 16 l34 23 6 159 c4 88 7
177 8 198 1 36 2 37 41 37 l40 0 0 -260 0 -260 -45 0 c-37 0 -45 3 -45 18 0
17 -5 16 -56 -10 -31 -15 -71 -28 -88 -28 -49 0 -98 32 -123 80 -22 41 -23 54
-23 252 l0 208 40 0 40 0 1 -182z m519 145 l0 -36 23 20 c37 34 84 53 132 53
l45 0 0 -49 0 -48 -48 5 c-34 3 -59 -1 -83 -13 -71 -36 -69 -29 -69 -232 l0
-183 -40 0 -40 0 0 260 0 260 40 0 c39 0 40 -1 40 -37z m-442 -1350 l-3 -38
-283 -3 c-288 -2 -306 0 -242 33 68 35 133 44 333 44 l198 1 -3 -37z m82 -13
l0 -49 78 -3 77 -3 3 -52 c2 -41 -27 -196 -40 -208 -2 -2 -68 -5 -148 -7
l-145 -3 -17 50 c-10 30 -17 84 -17 138 l-1 87 75 0 75 0 0 50 c0 49 1 50 30
50 29 0 30 -1 30 -50z m512 22 c31 -13 62 -29 68 -38 11 -13 -22 -14 -271 -12
l-284 3 -3 38 -3 39 218 -4 c197 -4 223 -6 275 -26z m-762 -135 c0 -34 9 -95
20 -135 11 -39 20 -76 20 -80 0 -5 -29 -20 -65 -35 -65 -27 -68 -27 -305 -27
l-240 0 0 43 c0 92 44 205 105 270 l26 27 219 0 220 0 0 -63z m905 36 c58 -62
105 -178 105 -260 l0 -33 -250 0 c-193 0 -250 -3 -250 -12 0 -7 16 -62 35
-123 19 -60 35 -118 35 -128 0 -10 -16 -46 -35 -78 -19 -33 -35 -64 -35 -69 0
-5 17 -37 37 -71 20 -35 36 -68 36 -74 0 -5 -17 -63 -37 -128 -36 -116 -37
-118 -84 -147 l-47 -30 -195 1 c-255 0 -275 7 -306 100 -12 35 -30 96 -40 136
l-18 72 39 62 38 62 -40 81 -40 81 37 110 36 110 60 30 c58 29 62 30 228 32
93 1 173 6 177 10 16 16 50 179 49 228 -2 27 -2 53 -1 58 0 4 100 7 221 7
l219 0 26 -27z m6761 -305 c195 -67 345 -217 412 -412 l27 -81 0 -915 0 -915
-27 -81 c-67 -195 -217 -345 -412 -412 l-81 -27 -765 0 -765 0 -82 28 c-93 31
-212 106 -268 168 -61 67 -114 157 -143 243 l-27 81 0 915 0 915 27 81 c77
226 260 386 499 433 24 5 377 8 784 8 l740 -2 81 -27z m-6656 -198 l0 -190
-230 0 c-140 0 -230 4 -230 10 0 5 14 32 30 60 17 28 30 56 30 63 0 7 -16 62
-35 122 -19 61 -35 113 -35 118 0 4 106 7 235 7 l235 0 0 -190z m-1110 163 c0
-5 -16 -57 -36 -117 l-37 -109 37 -74 36 -73 -235 0 -235 0 0 190 0 190 235 0
c129 0 235 -3 235 -7z m1110 -563 l0 -190 -235 0 c-129 0 -235 3 -235 6 0 4
17 60 37 126 41 133 43 112 -19 216 l-20 32 236 0 236 0 0 -190z m-1120 162
c0 -5 -13 -26 -30 -48 -16 -21 -30 -45 -30 -52 0 -7 16 -68 35 -135 19 -67 35
-125 35 -129 0 -5 -105 -7 -232 -6 l-233 3 -3 188 -2 187 230 0 c126 0 230 -4
230 -8z m1107 -409 c-10 -58 -52 -135 -104 -186 -49 -50 -63 -57 -63 -32 0 13
-31 15 -220 15 -133 0 -220 4 -220 10 0 5 18 24 40 41 39 31 40 34 40 93 0 95
2 95 294 96 l239 0 -6 -37z m-1450 -88 l3 -100 -35 39 c-30 34 -75 128 -75
157 0 6 22 9 53 7 l52 -3 2 -100z m392 94 c30 -11 31 -13 31 -68 0 -55 2 -59
40 -90 22 -18 38 -36 35 -42 -4 -5 -98 -9 -221 -9 -184 0 -214 -2 -214 -15 0
-18 -12 -19 -28 -3 -8 8 -12 50 -12 125 l0 113 169 0 c96 0 181 -5 200 -11z
m473 -139 c-21 -19 -42 -43 -45 -52 -5 -14 -18 -18 -62 -18 l-55 0 0 -50 c0
-49 -1 -50 -30 -50 -29 0 -30 1 -30 50 l0 50 -56 0 c-47 0 -57 3 -61 19 -3 11
-22 33 -44 51 -33 26 -39 37 -39 70 l0 40 228 2 227 3 3 -40 c3 -36 -1 -44
-36 -75z m-242 -131 l0 -41 -217 4 c-188 3 -225 7 -268 24 -29 11 -51 27 -53
37 -3 16 16 17 267 17 l271 0 0 -41z m638 24 c-2 -10 -24 -26 -53 -37 -43 -17
-80 -21 -267 -24 l-218 -4 0 41 0 41 271 0 c251 0 270 -1 267 -17z m33 -37
c-9 -10 -1 -30 38 -87 27 -41 296 -445 596 -899 301 -454 637 -961 748 -1127
l200 -302 41 -4 c23 -2 -4 -4 -59 -4 -55 0 -84 3 -64 6 l36 6 -222 335 c-123
184 -443 667 -713 1073 -269 407 -492 735 -495 730 -2 -4 -12 -35 -22 -68 -27
-94 -107 -156 -201 -155 -28 0 -27 2 21 33 72 46 122 99 134 143 14 50 14 181
0 189 -6 4 -8 13 -6 20 6 13 -26 45 -46 45 -6 0 -17 11 -24 25 -10 22 -8 26
15 39 35 18 36 18 23 2z m-1206 -76 c3 -5 -1 -10 -10 -10 -9 0 -13 5 -10 10 3
6 8 10 10 10 2 0 7 -4 10 -10z m381 -5 c4 -8 11 -15 18 -15 6 0 18 -9 26 -20
8 -11 19 -20 25 -20 24 -1 47 -31 52 -67 2 -21 6 -43 8 -50 2 -7 -1 -15 -7
-19 -7 -5 -8 -2 -3 7 4 8 -5 0 -21 -16 -39 -41 -96 -75 -125 -75 -63 0 -129
81 -129 158 0 45 33 100 70 119 34 17 79 16 86 -2z m408 -7 c9 -12 16 -18 16
-13 1 6 7 -1 15 -15 7 -14 15 -24 17 -22 8 8 38 -12 38 -26 0 -8 3 -12 7 -8
10 10 34 -75 27 -97 -6 -18 -6 -18 -19 0 -13 17 -13 17 -12 -2 1 -11 -3 -19
-10 -17 -7 1 -13 -2 -13 -7 0 -15 -75 -61 -101 -61 -27 0 -87 33 -106 59 -6 9
-17 35 -24 59 -23 84 37 172 118 172 22 0 37 -7 47 -22z m351 0 c39 -26 44
-38 16 -38 -29 0 -71 -39 -71 -65 0 -40 18 -75 45 -87 22 -10 29 -8 53 15 16
15 31 27 35 27 13 0 3 -55 -15 -81 -66 -97 -223 31 -186 153 9 32 66 98 83 98
3 0 21 -10 40 -22z m1609 16 c9 -3 16 -11 16 -18 0 -12 63 -56 80 -56 9 0 14
-17 13 -47 -1 -7 3 -13 8 -13 10 0 12 -40 3 -64 -3 -9 -10 -13 -15 -10 -5 3
-9 1 -9 -4 0 -6 -23 -24 -50 -42 -41 -26 -56 -31 -84 -26 -124 23 -159 202
-53 266 33 20 63 25 91 14z m401 -2 c6 -4 15 -16 21 -26 6 -11 27 -28 47 -39
34 -18 38 -25 51 -93 2 -11 0 -27 -6 -35 -8 -11 -9 -10 -4 4 3 11 2 16 -4 12
-6 -3 -10 -12 -10 -20 0 -7 -19 -28 -42 -47 -78 -61 -163 -35 -204 62 -36 84
28 188 116 189 14 0 30 -3 35 -7z m1571 -7 c4 -8 12 -15 19 -15 6 0 20 -9 30
-20 10 -11 21 -17 25 -15 4 3 10 -5 13 -16 3 -12 10 -18 16 -14 6 3 11 -1 11
-9 0 -9 0 -17 0 -18 1 -2 5 -19 9 -39 5 -22 5 -42 -1 -50 -8 -11 -9 -10 -4 3
3 9 -13 -1 -35 -23 -70 -70 -130 -75 -187 -16 -42 43 -55 89 -41 141 13 48 24
63 64 88 36 22 74 23 81 3z m402 -4 c2 -6 9 -11 15 -11 6 0 20 -9 32 -20 11
-11 30 -28 41 -38 16 -12 24 -33 29 -72 3 -30 3 -51 -1 -47 -4 3 -17 -4 -30
-18 -28 -30 -92 -65 -120 -65 -32 0 -87 41 -106 80 -36 70 -12 157 51 191 34
18 83 18 89 0z m-1604 -12 c30 -24 34 -39 8 -32 -10 2 -30 -5 -45 -17 -51 -40
-28 -140 32 -140 15 0 36 9 46 20 25 27 35 25 33 -7 -3 -29 -51 -83 -74 -83
-8 0 -29 6 -48 14 -90 38 -115 166 -45 236 36 35 57 38 93 9z m821 12 c-3 -5
8 -18 25 -27 16 -10 30 -22 30 -26 0 -4 8 -8 19 -8 13 0 22 -12 31 -45 12 -44
7 -100 -9 -90 -5 2 -11 -1 -14 -9 -3 -8 -26 -26 -50 -41 -53 -31 -98 -27 -92
7 3 12 2 18 -2 15 -6 -7 -32 22 -33 36 0 4 9 3 19 -3 36 -19 68 -11 96 22 20
23 25 38 20 57 -20 82 -118 84 -141 3 -7 -27 -7 -27 -15 8 -4 19 -4 37 0 40 4
3 13 14 18 25 6 10 26 25 45 31 41 15 61 17 53 5z m1147 -1 c6 0 8 -3 5 -7 -4
-3 1 -12 10 -18 15 -11 13 -13 -15 -20 -44 -9 -66 -45 -59 -93 4 -20 14 -43
24 -49 28 -21 70 -16 91 12 24 31 33 23 20 -18 -16 -49 -55 -80 -92 -73 -42 9
-95 64 -106 110 -18 79 43 178 98 160 8 -2 19 -4 24 -4z m-5436 -47 c24 -19
45 -42 48 -51 13 -48 15 -79 5 -92 -8 -12 -9 -9 -4 10 5 19 4 22 -4 10 -6 -8
-11 -24 -12 -35 0 -11 -3 -14 -6 -8 -3 9 -14 3 -33 -16 -29 -29 -82 -47 -88
-30 -2 5 -8 7 -12 4 -5 -3 -7 4 -5 16 2 12 1 19 -2 15 -4 -3 -15 6 -25 21 -24
37 -23 48 2 23 30 -30 66 -25 101 12 34 38 34 39 14 79 -34 65 -114 54 -132
-18 l-10 -38 -4 42 c-2 23 -1 39 3 37 5 -3 8 2 8 10 0 9 9 25 21 37 29 29 79
18 135 -28z m2361 6 c39 -25 55 -43 62 -69 10 -34 11 -84 2 -75 -2 3 -11 -3
-20 -13 -37 -41 -79 -62 -120 -60 -26 1 -37 4 -29 9 10 7 10 11 -3 21 -8 7
-21 27 -28 43 l-13 30 24 -22 c34 -32 59 -29 97 11 l33 34 -18 38 c-32 64
-102 64 -129 2 l-14 -33 -1 40 c0 91 59 107 157 44z m1242 -64 c27 -108 3
-210 -60 -257 -39 -30 -99 -51 -130 -46 -17 2 -9 12 44 50 36 26 73 58 82 72
20 30 43 125 39 157 -2 13 -5 39 -7 57 -6 48 18 23 32 -33z m-806 -200 c-10
-20 -37 -49 -61 -65 -41 -27 -117 -48 -129 -36 -4 3 3 6 15 6 12 0 22 5 22 11
0 6 6 9 13 6 15 -5 39 18 29 29 -4 4 -2 4 4 1 12 -7 82 38 102 65 21 29 23 21
5 -17z m1578 -2 c-22 -43 -71 -79 -126 -94 -40 -11 -100 -5 -110 11 -4 6 6 7
24 4 33 -7 134 23 126 36 -3 5 4 12 16 15 12 4 34 20 48 35 36 40 45 37 22 -7z
m-4340 -1 c-28 -52 -115 -102 -176 -102 -21 0 -57 19 -40 21 65 6 113 24 128
46 4 7 13 13 20 13 7 1 25 12 42 25 33 27 42 26 26 -3z m789 12 c0 -44 -112
-116 -175 -113 -17 1 -17 2 -2 6 9 2 17 9 17 15 0 5 6 8 13 5 10 -4 37 12 95
58 7 5 21 18 30 28 20 21 22 21 22 1z m2357 -28 c-35 -45 -82 -72 -137 -80
-43 -6 -44 -6 -20 8 14 8 28 12 32 10 5 -3 8 0 8 5 0 6 4 11 10 11 5 0 36 20
67 44 32 24 60 42 62 40 2 -2 -8 -19 -22 -38z m1580 0 c-35 -45 -82 -72 -137
-80 l-45 -6 50 23 c28 13 59 34 69 46 11 11 25 21 33 21 7 0 13 5 13 11 0 5 5
7 10 4 6 -3 13 1 16 10 4 9 9 14 12 11 2 -3 -7 -21 -21 -40z m-4348 -7 c-26
-36 -83 -67 -141 -74 -38 -5 -40 -4 -18 6 14 6 35 16 47 22 12 5 20 15 16 20
-3 6 -1 7 6 3 7 -5 23 3 38 18 14 14 29 23 34 20 5 -3 9 2 9 10 0 10 6 13 15
10 13 -5 12 -11 -6 -35z m1981 10 c-17 -30 -86 -76 -126 -83 -20 -4 -50 -4
-67 0 -30 6 -27 8 33 20 36 8 70 21 76 29 6 8 15 15 20 15 5 0 21 11 34 24 29
27 45 24 30 -5z m2770 11 c-17 -31 -79 -79 -117 -89 -39 -11 -91 -14 -63 -4
46 17 79 36 74 44 -3 5 1 7 8 4 7 -3 29 10 48 28 38 37 65 46 50 17z m474 6
c-3 -8 -12 -12 -20 -9 -17 6 -9 23 11 23 8 0 12 -6 9 -14z m-2800 -651 l14
-40 22 50 c14 30 25 44 27 34 5 -22 -32 -114 -47 -114 -13 0 -62 110 -52 119
9 10 20 -6 36 -49z m160 -6 l21 -54 5 55 c6 70 24 71 28 3 3 -52 4 -53 33 -53
18 0 28 -4 24 -10 -4 -6 -29 -10 -56 -9 -37 2 -53 7 -60 21 -13 24 -49 23 -56
-2 -3 -11 -12 -20 -19 -20 -17 0 -17 -1 2 46 9 22 20 49 25 62 13 35 30 23 53
-39z m146 -4 c0 -37 -4 -65 -10 -65 -11 0 -14 113 -3 123 12 13 13 7 13 -58z
m110 45 c43 -43 9 -114 -53 -108 -31 3 -32 5 -35 52 -2 27 -1 55 2 62 8 21 63
17 86 -6z m774 -187 c-62 -106 -85 -114 -33 -12 50 100 83 147 87 127 2 -10
-22 -62 -54 -115z m-477 110 c16 -6 15 -8 -7 -13 -31 -7 -49 -42 -51 -95 0
-31 -2 -35 -9 -20 -13 33 7 109 34 127 14 9 11 9 33 1z m723 -3 c12 -8 9 -10
-12 -10 -36 0 -48 -24 -49 -97 l-1 -58 -19 43 c-24 51 -18 94 14 117 25 17 46
19 67 5z m-510 -10 c0 -5 -17 -10 -37 -9 -31 0 -34 2 -18 9 28 12 55 12 55 0z
m715 0 c4 -6 -9 -10 -32 -9 -30 0 -34 2 -18 9 27 12 43 12 50 0z m-870 -107
c-10 -56 -26 -50 -24 9 2 29 5 57 8 62 9 18 22 -39 16 -71z m714 27 c0 -14 -4
-34 -9 -45 -6 -14 -9 -3 -9 40 -1 42 2 56 9 45 5 -8 9 -26 9 -40z m-535 -41
c5 -26 2 -40 -9 -49 -13 -11 -15 -5 -15 46 0 62 13 64 24 3z m711 -47 c-3 -7
-9 -10 -15 -7 -12 7 -14 88 -2 99 8 9 24 -73 17 -92z m-1595 58 c0 -5 -9 -10
-19 -10 -17 0 -20 -8 -23 -50 -4 -67 -22 -69 -26 -2 -3 44 -6 52 -23 52 -11 0
-17 5 -14 10 3 6 28 10 56 10 27 0 49 -4 49 -10z m30 -15 c0 -20 5 -25 25 -25
20 0 25 5 25 26 0 16 5 24 13 22 15 -6 17 -118 2 -118 -5 0 -11 11 -13 25 -3
19 -9 25 -27 25 -18 0 -24 -6 -27 -27 -2 -16 -7 -28 -13 -28 -12 0 -19 68 -11
102 8 31 26 30 26 -2z m190 4 c9 -16 8 -24 -4 -38 -15 -16 -15 -19 -1 -31 16
-13 21 -40 7 -40 -5 0 -18 14 -30 30 -27 36 -42 38 -42 6 0 -14 -4 -28 -10
-31 -6 -4 -10 18 -10 59 l0 66 40 0 c30 0 42 -5 50 -21z m50 -29 c0 -27 5 -51
10 -51 32 -5 35 -1 40 44 3 26 10 47 15 47 15 -1 11 -86 -4 -104 -16 -19 -52
-21 -69 -4 -14 14 -16 118 -2 118 6 0 10 -22 10 -50z m-3453 -337 c48 -32 72
-143 37 -177 -8 -9 -17 -16 -19 -16 -2 0 -3 25 -3 55 1 121 -83 146 -129 38
-7 -18 -18 -33 -24 -33 -8 0 -7 5 1 15 8 9 8 15 2 15 -20 0 7 64 38 93 35 31
60 34 97 10z m896 -3 c5 -4 7 -23 5 -41 -4 -40 -29 -50 -43 -17 -7 17 -18 23
-42 23 -18 0 -33 1 -33 2 0 1 5 14 10 28 9 25 13 26 53 20 23 -4 46 -11 50
-15z m117 -60 c13 -34 26 -56 28 -49 3 8 13 38 24 67 17 46 23 52 48 52 48 0
47 -4 -28 -123 -18 -28 -31 -37 -52 -37 -22 0 -29 6 -35 28 l-8 27 -9 -37 c-6
-21 -16 -38 -24 -38 -11 0 -14 17 -14 70 0 40 -4 70 -10 70 -13 0 -13 23 1 37
23 23 53 -3 79 -67z m268 65 c1 -1 -4 -20 -12 -43 -8 -23 -16 -69 -17 -102 -4
-97 -19 -81 -19 19 l0 91 -30 0 c-23 0 -30 5 -30 19 0 11 6 22 13 25 10 4 88
-2 95 -9z m253 5 c28 0 29 -2 29 -45 0 -35 -3 -43 -15 -39 -8 4 -15 15 -15 25
0 12 -7 19 -19 19 -23 0 -30 -9 -33 -44 -4 -40 -28 -32 -28 9 0 28 -4 35 -19
35 -13 0 -21 -8 -23 -22 -5 -36 -33 -28 -36 10 -6 60 1 66 70 58 33 -3 74 -6
89 -6z m-1683 -17 c2 -7 -8 -17 -22 -23 -23 -9 -26 -15 -26 -63 0 -31 -6 -61
-15 -73 -13 -17 -14 -12 -13 52 2 47 -2 77 -11 87 -7 9 -10 21 -6 27 9 15 87
8 93 -7z m312 -3 c0 -11 -7 -20 -15 -20 -10 0 -15 -11 -15 -35 0 -34 1 -35 40
-35 39 0 40 1 40 35 0 24 -5 35 -15 35 -8 0 -15 9 -15 20 0 17 7 20 40 20 32
0 40 -4 40 -18 0 -10 -4 -22 -9 -27 -6 -6 -11 -34 -13 -64 -2 -38 -8 -56 -18
-59 -12 -4 -13 -3 -3 10 11 13 7 14 -32 8 -24 -4 -51 -13 -60 -20 -25 -21 -26
-17 -39 113 l-6 57 40 0 c33 0 40 -3 40 -20z m207 -40 c18 -30 33 -62 33 -72
0 -28 -29 -21 -42 10 l-12 27 -4 -30 c-2 -16 -9 -36 -15 -43 -17 -21 -28 6
-25 66 1 41 -2 55 -17 66 -24 17 -10 38 23 34 20 -2 35 -16 59 -58z m963 45
c0 -8 -9 -15 -20 -15 -13 0 -18 5 -14 15 4 8 12 15 20 15 8 0 14 -7 14 -15z
m330 2 c0 -4 4 -5 10 -2 6 3 7 -1 4 -9 -3 -9 -10 -16 -15 -16 -5 0 -9 -16 -9
-35 0 -31 3 -35 25 -35 38 0 31 -27 -11 -45 -20 -8 -40 -15 -45 -15 -5 0 -9
29 -9 65 0 37 -4 65 -10 65 -5 0 -10 9 -10 20 0 17 6 20 35 18 19 -1 35 -6 35
-11z m-795 -116 c36 -21 46 -51 16 -51 -11 0 -23 5 -26 10 -3 6 -14 10 -23 10
-25 0 -38 12 -47 39 -7 22 -5 23 21 17 16 -4 42 -15 59 -25z m611 -33 c-1 -45
-26 -49 -26 -4 0 24 5 36 14 36 8 0 13 -11 12 -32z"/>
<path d="M2350 7176 l0 -96 86 0 c81 0 87 1 115 29 35 36 40 95 10 132 -17 22
-29 24 -115 27 l-96 4 0 -96z"/>
<path d="M2350 6865 l0 -125 78 0 c94 0 141 12 171 44 29 30 39 103 21 146
-20 48 -55 60 -170 60 l-100 0 0 -125z"/>
<path d="M3020 7257 c0 -3 -20 -71 -45 -150 -25 -80 -45 -152 -45 -161 0 -14
15 -16 95 -16 68 0 95 3 95 12 0 7 -21 80 -46 163 -41 135 -54 171 -54 152z"/>
<path d="M1000 7082 c-68 -69 -68 -255 0 -324 52 -52 136 -34 170 37 26 53 28
185 4 245 -29 73 -121 95 -174 42z"/>
<path d="M7731 5350 c-301 -41 -548 -262 -616 -553 -21 -90 -19 -257 4 -349
19 -74 65 -176 102 -229 18 -26 18 -27 -2 -45 -31 -28 -42 -53 -50 -112 -15
-105 31 -172 124 -182 l52 -5 -33 -18 c-21 -11 -50 -17 -76 -16 -47 3 -70 -7
-62 -26 2 -7 0 -17 -5 -22 -29 -29 39 -68 100 -57 112 20 181 102 181 213 l0
50 68 -31 c37 -17 71 -36 75 -44 14 -24 64 -44 109 -44 l43 0 -30 -20 c-21
-14 -47 -20 -86 -20 -55 0 -57 -1 -63 -31 -9 -49 -8 -55 19 -67 82 -37 204 20
241 113 l19 46 90 -5 c50 -2 115 -8 145 -13 l55 -8 -33 -18 c-21 -12 -50 -17
-78 -16 -50 3 -59 -3 -69 -48 -13 -62 68 -83 160 -39 59 27 88 57 110 109 l16
38 97 -6 c200 -12 200 -12 216 10 23 31 39 123 32 188 -6 61 3 68 24 17 7 -16
20 -30 29 -31 10 0 11 -2 4 -6 -9 -3 -13 -28 -13 -72 0 -121 -72 -206 -186
-219 -59 -6 -53 8 17 43 27 14 49 28 49 31 0 2 -9 0 -20 -6 -11 -6 -43 -10
-70 -9 -27 2 -52 1 -54 -2 -2 -2 -7 -20 -11 -40 -10 -56 13 -73 88 -66 80 7
133 44 167 114 23 48 28 52 70 58 289 43 516 229 607 500 25 72 27 94 27 225
0 133 -2 152 -28 225 -69 200 -199 345 -383 431 -140 66 -150 67 -653 70 -250
1 -484 -2 -519 -6z m756 -186 c-3 -3 -12 -4 -19 -1 -8 3 -5 6 6 6 11 1 17 -2
13 -5z m130 0 c-3 -3 -12 -4 -19 -1 -8 3 -5 6 6 6 11 1 17 -2 13 -5z m-562
-35 c33 -11 79 -32 103 -45 l42 -25 30 21 c34 24 135 70 153 70 7 -1 -15 -12
-48 -26 -33 -13 -73 -35 -90 -48 l-30 -24 56 -59 c30 -32 63 -70 73 -85 9 -14
28 -29 42 -32 27 -7 33 -26 7 -26 -13 0 -14 -3 -5 -12 9 -9 17 -7 35 10 13 12
31 22 40 22 14 0 16 4 8 19 -8 14 -5 23 13 40 12 11 29 21 37 21 8 -1 2 -8
-13 -16 -30 -16 -36 -35 -15 -52 10 -8 16 -6 25 9 9 14 19 18 38 13 14 -4 29
-3 33 2 3 5 24 18 46 27 30 13 47 16 65 9 22 -9 23 -11 8 -17 -33 -13 -19 -22
43 -29 39 -5 66 -3 72 3 6 6 15 7 21 3 15 -12 89 -32 115 -32 17 0 21 -6 21
-35 0 -31 -3 -35 -25 -35 -14 0 -25 -6 -25 -13 0 -7 -7 -22 -16 -33 -15 -18
-15 -18 -9 9 5 24 3 27 -23 27 -29 0 -72 -24 -72 -41 0 -5 7 -9 15 -9 23 0 18
-18 -15 -53 -16 -18 -30 -39 -30 -47 0 -12 -2 -13 -9 -1 -14 21 -31 3 -25 -27
4 -22 -1 -31 -26 -47 -20 -13 -29 -27 -28 -40 2 -14 -2 -20 -14 -19 -19 2 -25
-21 -8 -31 5 -3 7 -12 4 -20 -3 -7 4 -23 15 -34 12 -12 16 -21 9 -21 -15 0
-54 56 -50 72 1 6 -5 30 -14 54 l-17 43 -18 -23 c-11 -13 -19 -29 -19 -34 0
-6 -4 -13 -9 -17 -10 -6 -41 49 -41 72 0 7 -4 13 -9 13 -5 0 -23 3 -40 6 -20
4 -31 3 -31 -5 0 -6 7 -11 15 -11 27 0 17 -40 -12 -51 -21 -8 -24 -12 -14 -19
11 -6 9 -16 -11 -52 -13 -23 -23 -51 -20 -61 8 -37 -57 -141 -82 -131 -6 2
-31 -16 -55 -40 l-44 -45 49 -30 c59 -38 70 -38 89 -2 17 34 51 61 77 61 9 0
32 -14 50 -30 18 -17 25 -28 15 -24 -28 10 -75 -15 -86 -46 -27 -79 53 -147
105 -89 l18 20 8 -22 c13 -33 -48 -89 -88 -81 -64 11 -113 69 -115 134 0 31
-5 35 -67 66 -37 18 -73 32 -80 32 -7 0 -11 4 -7 9 3 5 -8 19 -24 30 -16 11
-46 43 -67 71 -21 27 -41 50 -44 50 -13 -1 -98 -128 -100 -150 -4 -42 -1 -44
21 -16 24 30 51 46 88 52 20 3 37 -4 66 -31 22 -19 46 -35 52 -35 28 0 58
-139 31 -141 -4 0 -22 -14 -40 -31 -35 -33 -67 -48 -101 -48 -36 0 -87 42
-110 93 l-22 47 -52 0 c-45 0 -53 -3 -53 -19 0 -39 -107 -121 -158 -121 -30 0
-85 42 -104 80 -20 39 -23 101 -7 131 9 17 6 24 -18 42 -129 99 -212 271 -213
438 0 76 33 199 72 268 71 126 218 232 368 266 81 18 191 11 275 -16z m372 25
c-3 -3 -12 -4 -19 -1 -8 3 -5 6 6 6 11 1 17 -2 13 -5z m513 -149 c13 -14 21
-25 18 -25 -2 0 -15 11 -28 25 -13 14 -21 25 -18 25 2 0 15 -11 28 -25z m147
-317 c-3 -7 -5 -2 -5 12 0 14 2 19 5 13 2 -7 2 -19 0 -25z m-237 -17 c0 -14
-40 -61 -52 -61 -7 0 -2 10 10 23 12 13 22 29 22 35 0 7 5 12 10 12 6 0 10 -4
10 -9z m237 -143 c-3 -8 -6 -5 -6 6 -1 11 2 17 5 13 3 -3 4 -12 1 -19z m-347
-76 c-1 -17 -19 -34 -29 -28 -8 5 -8 13 -1 27 10 18 30 18 30 1z m98 -28 c12
-4 22 -10 22 -15 0 -14 -34 -10 -56 6 -21 16 -8 20 34 9z m-7 -59 c14 5 49
-45 49 -70 0 -22 -22 -65 -33 -65 -6 0 -20 9 -32 20 -18 17 -27 19 -50 10 -33
-13 -34 -12 -41 31 -4 30 -1 37 33 61 25 17 42 23 49 17 6 -5 18 -7 25 -4z
m-382 -7 c0 -7 -4 -22 -9 -33 -7 -18 -8 -19 -15 -2 -4 9 -5 24 -1 32 7 18 26
20 25 3z m525 -90 c-4 -7 -27 -31 -53 -53 l-46 -39 50 52 c52 55 58 60 49 40z
m-14 -84 c-18 -21 -24 -10 -9 18 8 14 14 18 17 10 2 -7 -2 -19 -8 -28z m-1624
1 c6 -5 27 -24 46 -41 20 -18 41 -41 47 -52 14 -27 15 -114 1 -92 -7 11 -10
12 -10 2 0 -17 -15 -32 -63 -61 -57 -35 -77 -25 -116 61 -26 59 -31 79 -25
112 9 53 38 83 78 82 17 -1 36 -5 42 -11z m1534 -9 c0 -2 -8 -10 -17 -17 -16
-13 -17 -12 -4 4 13 16 21 21 21 13z m-343 -112 c-3 -3 -12 -4 -19 -1 -8 3 -5
6 6 6 11 1 17 -2 13 -5z m-321 -183 c-21 -39 -70 -76 -121 -90 -56 -15 -73
-14 -50 3 11 8 25 12 32 9 7 -3 13 0 13 6 0 6 7 11 15 11 8 0 15 3 15 8 0 4
17 18 38 32 20 14 43 33 51 43 20 27 25 13 7 -22z m-797 -12 c-30 -57 -144
-102 -199 -80 -25 10 -14 15 24 11 24 -2 87 29 104 53 7 9 20 17 28 17 8 0 17
6 20 14 3 8 12 12 20 9 10 -4 11 -10 3 -24z m401 12 c0 -5 -18 -25 -39 -44
-39 -35 -95 -58 -136 -56 -17 1 -17 2 -2 6 9 2 17 9 17 15 0 6 3 9 6 5 8 -8
52 15 80 42 12 11 24 18 27 15 2 -2 10 2 17 11 14 17 30 20 30 6z"/>
<path d="M7770 5125 c-81 -20 -138 -47 -205 -98 -91 -69 -157 -166 -189 -276
-18 -62 -21 -203 -5 -271 17 -75 67 -167 126 -230 70 -76 86 -85 115 -66 38
24 84 29 101 12 9 -9 19 -16 22 -16 4 0 16 -11 27 -25 11 -14 25 -25 32 -25 7
0 18 -11 24 -24 12 -26 55 -39 101 -30 38 8 46 29 21 56 -23 25 -24 43 -9 140
8 48 8 73 1 77 -16 10 -34 62 -34 96 1 24 -6 35 -36 55 -102 68 -152 125 -152
174 0 16 -7 38 -17 48 -9 10 -21 28 -27 40 -16 31 -42 34 -87 9 -35 -20 -37
-20 -32 -2 3 10 0 22 -6 25 -6 4 -11 25 -11 46 0 50 18 56 122 42 66 -9 102
-6 71 5 -7 3 -13 15 -13 27 0 19 15 30 90 65 84 38 150 53 150 33 0 -4 -11
-23 -25 -42 l-25 -34 39 -41 c36 -36 38 -42 26 -58 -17 -24 -55 -14 -55 14 0
11 -4 17 -10 14 -5 -3 -10 -15 -10 -26 0 -12 -7 -19 -19 -19 -34 0 -36 -22 -5
-47 38 -30 45 -29 42 5 -3 23 0 27 22 24 14 -1 32 -11 42 -22 21 -26 24 -25
36 9 7 19 7 43 0 72 -14 60 -22 74 -44 74 -28 0 -28 28 -1 57 20 21 37 27 98
34 41 4 83 8 93 8 39 2 26 25 -28 50 -112 53 -244 68 -356 41z m-277 -293
c-21 -2 -33 -9 -33 -18 0 -8 -4 -14 -10 -14 -5 0 -10 18 -10 40 l0 40 43 -22
42 -23 -32 -3z m74 -270 c10 2 19 -5 21 -16 3 -13 0 -16 -10 -10 -7 5 -17 9
-23 9 -19 2 -45 17 -45 26 0 6 9 5 20 -1 11 -6 28 -10 37 -8z m103 -233 c0 -5
-4 -9 -10 -9 -5 0 -10 7 -10 16 0 8 5 12 10 9 6 -3 10 -10 10 -16z m25 -19 c3
-5 1 -10 -4 -10 -6 0 -11 5 -11 10 0 6 2 10 4 10 3 0 8 -4 11 -10z"/>
<path d="M8180 5025 c-6 -8 -9 -19 -6 -24 4 -5 2 -12 -4 -16 -5 -3 -10 -17
-10 -31 0 -40 -36 -101 -64 -108 -14 -3 -27 -15 -31 -25 -3 -10 -14 -21 -24
-24 -24 -6 -41 -82 -41 -183 0 -110 15 -159 56 -185 39 -24 37 -20 24 -54 -13
-35 5 -68 76 -141 l55 -57 49 48 c47 46 48 48 37 84 -5 20 -9 47 -8 61 1 28
-17 81 -33 92 -6 4 -22 8 -35 8 -31 0 -50 27 -51 71 0 27 8 42 33 67 34 33 71
42 80 19 7 -18 97 -21 97 -3 0 9 -9 13 -25 12 -19 -3 -26 3 -34 25 -12 34 -26
40 -15 7 7 -23 7 -23 -15 -4 -21 19 -22 19 -50 -2 -29 -21 -41 -20 -41 5 0 7
7 13 16 13 10 0 14 6 10 15 -3 9 4 21 19 31 14 9 25 22 25 29 0 8 8 11 21 8
12 -3 24 -1 28 4 3 5 15 15 26 21 19 11 19 11 -2 12 -25 0 -29 10 -11 28 8 8
8 12 1 12 -13 0 -23 -23 -23 -51 0 -10 -4 -19 -9 -19 -20 0 -41 13 -41 25 0
25 40 83 61 88 18 5 19 8 8 29 -14 27 -116 128 -128 128 -5 0 -14 -7 -21 -15z
m4 -184 c9 -15 -23 -36 -36 -23 -5 5 -7 15 -4 21 9 13 33 14 40 2z m56 -103
c0 -4 -4 -8 -10 -8 -5 0 -10 4 -10 9 0 5 -3 18 -6 28 -5 16 -4 16 10 -1 9 -11
16 -23 16 -28z m-35 13 c3 -5 1 -12 -5 -16 -5 -3 -10 1 -10 9 0 18 6 21 15 7z"/>
<path d="M7963 4702 c-24 -19 -63 -85 -63 -107 0 -12 -4 -13 -19 -4 -24 16
-51 5 -51 -21 0 -13 7 -20 20 -20 12 0 22 -9 26 -24 5 -22 11 -24 58 -24 l51
1 0 108 c0 60 0 109 0 109 0 0 -10 -8 -22 -18z m-43 -148 c0 -2 -7 -4 -15 -4
-8 0 -15 4 -15 10 0 5 7 7 15 4 8 -4 15 -8 15 -10z m50 -30 c0 -2 -9 0 -20 6
-11 6 -20 13 -20 16 0 2 9 0 20 -6 11 -6 20 -13 20 -16z"/>
<path d="M8356 4683 c-4 -9 4 -13 25 -13 19 0 29 4 27 12 -6 16 -46 17 -52 1z"/>
<path d="M8450 4665 c0 -14 4 -25 9 -25 5 0 8 11 7 25 -1 33 -16 33 -16 0z"/>
<path d="M8380 4591 c0 -19 23 -71 31 -71 12 0 11 7 -3 47 -11 30 -28 45 -28
24z"/>
<path d="M7669 4136 c-13 -6 -30 -24 -37 -39 -12 -24 -11 -33 5 -65 14 -29 24
-38 50 -40 26 -3 36 3 57 31 20 26 25 42 21 60 -12 47 -58 72 -96 53z m56 -46
c8 -13 -5 -13 -25 0 -13 8 -13 10 2 10 9 0 20 -4 23 -10z"/>
<path d="M8059 4136 c-62 -31 -42 -146 26 -146 23 0 57 27 75 60 13 24 -17 77
-50 88 -19 7 -35 6 -51 -2z m31 -40 c0 -2 -9 -6 -20 -9 -11 -3 -18 -1 -14 4 5
9 34 13 34 5z"/>
<path d="M7273 4139 c-23 -8 -43 -38 -43 -63 0 -13 4 -12 20 4 28 28 74 26 98
-5 26 -33 35 -19 15 22 -17 36 -57 54 -90 42z"/>
<path d="M9075 3378 c-2 -7 -11 -42 -20 -78 -9 -36 -23 -88 -31 -117 -17 -57
-13 -55 -134 -55 l-35 1 25 -20 c18 -15 32 -19 55 -14 16 3 46 6 65 6 l36 -1
33 132 c19 73 36 139 39 146 2 6 -3 12 -12 12 -9 0 -19 -6 -21 -12z"/>
<path d="M7410 3370 c0 -25 33 -124 37 -112 6 17 -16 110 -28 118 -5 3 -9 0
-9 -6z"/>
<path d="M7602 3348 c-5 -18 -19 -73 -32 -123 -13 -49 -30 -94 -37 -98 -21
-13 -15 -27 11 -27 22 0 26 9 54 118 38 146 40 154 25 159 -7 2 -16 -10 -21
-29z"/>
<path d="M8241 3353 c-22 -11 -40 -31 -52 -57 -22 -48 -23 -65 -7 -103 11 -27
12 -27 19 27 13 98 100 148 183 105 15 -8 32 -12 37 -9 15 9 10 44 -6 44 -8 0
-15 -5 -15 -10 0 -6 -13 -4 -30 5 -38 19 -86 19 -129 -2z"/>
<path d="M7345 3244 c-16 -60 -35 -113 -42 -117 -17 -11 -7 -27 16 -27 15 0
24 21 46 105 21 78 26 111 18 127 -8 18 -14 4 -38 -88z"/>
<path d="M7519 3298 c-18 -24 -46 -58 -63 -76 -24 -26 -28 -34 -17 -45 10 -10
21 -2 57 38 40 46 73 110 61 121 -2 3 -19 -14 -38 -38z"/>
<path d="M7720 3302 c-25 -4 -42 -20 -34 -33 2 -4 22 -3 44 2 22 5 44 8 49 7
5 -2 9 2 10 7 1 13 -36 22 -69 17z"/>
<path d="M8053 3272 c-24 -21 -43 -42 -43 -47 0 -6 11 -27 25 -47 29 -43 30
-48 9 -48 -26 0 -9 -25 19 -28 34 -4 34 0 -4 54 l-30 45 48 44 c26 24 51 44
56 45 4 0 7 5 7 10 0 22 -48 7 -87 -28z"/>
<path d="M8500 3302 c-26 -4 -42 -20 -34 -34 3 -4 15 -6 27 -3 12 3 34 7 50 9
15 1 27 7 27 12 0 12 -39 21 -70 16z"/>
<path d="M8837 3304 c-4 -4 -19 -8 -34 -9 -65 -6 -79 -19 -93 -85 -7 -34 -19
-68 -27 -75 -20 -21 -16 -35 11 -35 20 0 25 7 36 61 17 77 34 99 83 102 36 3
61 22 51 39 -6 10 -18 10 -27 2z"/>
<path d="M7836 3290 c-2 -8 -12 -47 -21 -87 l-17 -71 -46 -2 c-26 -1 -62 -1
-81 -1 -31 0 -33 -2 -19 -16 9 -8 26 -15 39 -14 13 0 47 1 76 2 l52 1 16 54
c24 85 28 111 17 131 -9 15 -12 15 -16 3z"/>
<path d="M7970 3280 c6 -11 13 -20 16 -20 2 0 0 9 -6 20 -6 11 -13 20 -16 20
-2 0 0 -9 6 -20z"/>
<path d="M8616 3293 c-3 -3 -6 -15 -6 -27 0 -11 -7 -45 -16 -77 l-16 -57 -47
-2 c-25 -1 -62 -1 -81 -1 l-35 0 25 -21 c19 -15 32 -18 60 -13 19 4 50 8 69 8
33 2 34 4 52 67 10 36 18 77 19 92 0 27 -12 43 -24 31z"/>
<path d="M8907 3282 c-22 -24 -39 -81 -31 -104 9 -29 21 -20 28 20 7 47 30 69
76 74 50 4 43 22 -11 26 -34 2 -49 -2 -62 -16z"/>
<path d="M7690 3217 c-28 -14 -41 -57 -17 -57 8 0 17 7 21 15 3 8 23 18 45 21
54 9 64 34 13 34 -20 0 -48 -6 -62 -13z"/>
<path d="M8470 3217 c-28 -14 -41 -57 -17 -57 8 0 17 6 20 14 3 8 25 18 48 23
56 11 64 33 12 33 -21 0 -49 -6 -63 -13z"/>
<path d="M7924 3159 c-58 -48 -64 -59 -32 -59 23 1 98 61 98 80 0 22 -20 16
-66 -21z"/>
<path d="M8349 3148 c-40 -20 -108 -27 -151 -15 -46 12 -32 -10 17 -29 40 -15
53 -15 100 -5 55 13 79 30 73 54 -2 12 -10 11 -39 -5z"/>
<path d="M1360 4142 c-51 -16 -66 -79 -29 -126 29 -36 62 -34 93 7 29 38 31
46 15 81 -12 26 -54 46 -79 38z"/>
<path d="M1739 4135 c-34 -18 -43 -55 -25 -100 10 -23 23 -36 42 -41 22 -6 32
-1 61 29 33 36 33 37 19 72 -9 21 -26 39 -41 45 -31 12 -24 12 -56 -5z"/>
<path d="M3730 4142 c-33 -10 -50 -36 -50 -74 0 -77 69 -104 114 -45 31 41 32
56 6 89 -21 27 -46 38 -70 30z"/>
<path d="M4112 4139 c-64 -24 -44 -149 25 -149 33 0 85 57 77 85 -17 56 -56
81 -102 64z"/>
<path d="M5693 4139 c-40 -15 -54 -65 -31 -114 23 -50 88 -43 120 12 16 28 16
32 -1 63 -19 37 -54 52 -88 39z"/>
<path d="M6100 4142 c-34 -10 -50 -35 -50 -77 0 -77 66 -102 115 -43 20 23 25
38 20 57 -12 46 -49 74 -85 63z"/>
<path d="M4020 3230 c0 -5 5 -10 10 -10 6 0 10 5 10 10 0 6 -4 10 -10 10 -5 0
-10 -4 -10 -10z"/>
<path d="M4260 3225 c0 -38 3 -45 20 -45 18 0 40 26 40 49 0 14 -29 41 -46 41
-10 0 -14 -13 -14 -45z"/>
<path d="M4120 3045 c0 -9 9 -15 25 -15 16 0 25 6 25 15 0 9 -9 15 -25 15 -16
0 -25 -6 -25 -15z"/>
<path d="M1820 2560 l-25 -8 28 -1 c15 -1 27 4 27 9 0 6 -1 10 -2 9 -2 -1 -14
-5 -28 -9z"/>
<path d="M6640 7755 c-31 -37 2 -105 51 -105 33 0 69 23 76 47 7 30 -11 73
-32 73 -20 0 -19 -9 2 -32 13 -15 15 -23 7 -36 -23 -36 -94 -26 -94 13 0 13 5
27 10 30 12 8 13 25 1 25 -5 0 -14 -7 -21 -15z"/>
<path d="M6630 7620 c0 -6 30 -10 70 -10 40 0 70 4 70 10 0 6 -30 10 -70 10
-40 0 -70 -4 -70 -10z"/>
<path d="M6702 7577 c-6 -7 -15 -25 -21 -40 -6 -15 -15 -27 -21 -27 -13 0 -13
37 0 45 15 9 12 25 -5 25 -19 0 -36 -41 -28 -69 6 -22 36 -37 54 -25 6 3 17
22 25 40 8 19 18 34 23 34 16 0 20 -28 6 -47 -18 -23 -18 -33 0 -33 32 0 46
67 19 94 -19 19 -38 20 -52 3z"/>
<path d="M6643 7448 c-17 -22 -21 -42 -12 -66 14 -37 59 -27 74 17 13 39 29
50 38 26 7 -18 -1 -45 -14 -45 -5 0 -9 -7 -9 -15 0 -20 13 -19 33 3 33 36 11
97 -33 90 -16 -2 -27 -13 -35 -37 -14 -43 -35 -53 -35 -17 0 14 5 26 10 26 6
0 10 7 10 15 0 18 -14 20 -27 3z"/>
<path d="M6692 7322 c-76 -31 -77 -48 -6 -76 29 -12 52 -24 53 -28 0 -5 1 -21
1 -38 0 -30 -1 -30 -55 -30 -30 0 -55 -4 -55 -10 0 -6 30 -10 70 -10 l70 0 0
56 c0 47 -3 57 -20 61 -14 4 -20 14 -20 33 0 20 6 31 20 35 11 3 20 13 20 21
0 18 -2 17 -78 -14z m8 -42 c0 -5 -4 -10 -9 -10 -6 0 -13 5 -16 10 -3 6 1 10
9 10 9 0 16 -4 16 -10z"/>
<path d="M6640 7095 c-18 -22 -15 -62 5 -85 39 -43 125 -12 125 44 0 38 -40
71 -55 46 -3 -5 -2 -10 4 -10 6 0 15 -9 21 -21 17 -30 -5 -51 -49 -47 -31 3
-36 7 -39 31 -2 15 1 27 7 27 6 0 11 7 11 15 0 19 -14 19 -30 0z"/>
<path d="M6720 6918 c0 -6 7 -19 16 -29 25 -27 2 -61 -38 -57 -40 4 -58 30
-40 59 19 30 4 38 -19 10 -22 -27 -18 -57 13 -83 27 -24 59 -23 92 3 27 21 33
48 16 78 -11 22 -40 35 -40 19z"/>
<path d="M6630 6770 c0 -6 30 -10 70 -10 40 0 70 4 70 10 0 6 -30 10 -70 10
-40 0 -70 -4 -70 -10z"/>
<path d="M6702 6727 c-6 -7 -15 -25 -21 -40 -6 -15 -15 -27 -21 -27 -13 0 -13
37 0 45 16 10 11 27 -6 23 -24 -4 -34 -41 -20 -69 18 -36 48 -30 69 14 10 20
22 37 27 37 15 0 18 -28 5 -47 -18 -23 -18 -33 0 -33 32 0 46 67 19 94 -19 19
-38 20 -52 3z"/>
<path d="M6708 6609 c-9 -5 -19 -23 -23 -39 -4 -16 -11 -32 -16 -36 -15 -9
-23 27 -10 48 15 24 7 35 -13 19 -19 -16 -25 -42 -15 -70 14 -36 59 -25 74 18
13 39 29 50 38 26 7 -18 -1 -45 -14 -45 -5 0 -9 -7 -9 -15 0 -20 13 -19 34 4
35 39 -3 114 -46 90z"/>
<path d="M6692 6473 c-40 -17 -62 -32 -60 -41 2 -8 27 -24 56 -36 30 -11 53
-24 53 -28 -1 -5 -1 -21 -1 -38 0 -30 -1 -30 -55 -30 -30 0 -55 -4 -55 -10 0
-6 30 -10 70 -10 l70 0 0 55 c0 44 -4 56 -20 65 -12 6 -20 21 -20 35 0 14 8
29 20 35 19 10 28 31 13 29 -5 0 -36 -12 -71 -26z m5 -50 c-3 -3 -11 -2 -17 2
-9 6 -9 10 1 16 14 8 27 -7 16 -18z"/>
<path d="M6640 6245 c-34 -41 3 -105 61 -105 56 0 90 67 53 104 -31 31 -46 16
-17 -16 26 -29 6 -53 -43 -53 -35 0 -39 3 -42 28 -2 15 1 27 7 27 6 0 11 7 11
15 0 19 -14 19 -30 0z"/>
<path d="M6720 6069 c0 -7 7 -20 15 -29 20 -22 10 -48 -21 -56 -47 -12 -78 21
-56 57 15 24 15 29 -1 29 -8 0 -19 -12 -26 -26 -25 -56 38 -110 95 -82 36 17
48 39 40 71 -7 28 -46 58 -46 36z"/>
<path d="M6630 5925 c0 -12 14 -15 71 -15 52 0 70 3 67 13 -3 7 -29 13 -71 15
-55 2 -67 0 -67 -13z"/>
<path d="M6646 5877 c-39 -28 -8 -116 32 -91 9 6 21 25 26 43 9 31 29 41 41
21 4 -6 -1 -22 -10 -36 -18 -28 -15 -40 9 -31 21 8 31 54 17 83 -17 37 -51 28
-74 -18 -10 -21 -23 -38 -28 -38 -13 0 -11 34 2 47 19 19 6 36 -15 20z"/>
<path d="M6708 5760 c-9 -6 -19 -24 -23 -40 -4 -16 -11 -32 -16 -36 -15 -9
-23 27 -10 48 14 23 10 31 -12 23 -37 -15 -23 -95 17 -95 19 0 27 9 40 40 9
22 20 40 26 40 17 0 15 -50 -2 -61 -6 -4 -9 -12 -7 -18 3 -8 11 -6 27 4 27 20
29 65 4 88 -21 20 -22 20 -44 7z"/>
<path d="M6692 5623 c-78 -32 -78 -48 1 -76 40 -15 56 -25 52 -35 -3 -7 -5
-22 -5 -32 0 -16 -9 -19 -52 -22 -30 -2 -53 -8 -56 -15 -3 -10 15 -13 67 -13
l71 0 0 55 c0 44 -4 56 -20 65 -12 6 -20 21 -20 35 0 14 8 29 20 35 19 10 28
31 13 30 -5 -1 -36 -13 -71 -27z m8 -38 c0 -9 -6 -12 -16 -8 -13 5 -13 7 -2
14 17 11 18 11 18 -6z"/>
<path d="M6640 5395 c-31 -37 2 -105 51 -105 33 0 69 23 76 47 7 30 -11 73
-32 73 -20 0 -19 -9 2 -32 26 -29 6 -53 -43 -53 -33 0 -39 3 -42 24 -2 13 1
28 7 34 6 6 11 15 11 19 0 13 -17 9 -30 -7z"/>
<path d="M6652 5223 c-22 -8 -33 -51 -21 -76 16 -30 28 -37 70 -37 42 0 69 24
69 62 0 28 -33 63 -50 53 -8 -5 -5 -13 9 -26 12 -11 21 -24 21 -29 0 -19 -34
-41 -58 -38 -36 4 -49 30 -32 62 15 28 12 36 -8 29z"/>
<path d="M6630 5075 c0 -12 14 -15 71 -15 52 0 70 3 67 13 -3 7 -29 13 -71 15
-55 2 -67 0 -67 -13z"/>
<path d="M6640 5025 c-32 -39 1 -106 41 -84 11 5 19 14 19 19 0 5 5 21 10 36
10 25 12 26 27 11 15 -15 15 -18 -1 -42 -20 -30 -17 -39 8 -29 41 16 27 104
-18 104 -19 0 -27 -9 -40 -40 -18 -45 -36 -53 -36 -15 0 14 5 25 10 25 6 0 10
7 10 15 0 19 -14 19 -30 0z"/>
<path d="M6702 4907 c-6 -7 -15 -25 -21 -40 -6 -15 -15 -27 -21 -27 -13 0 -13
37 0 45 16 10 11 27 -7 23 -34 -6 -36 -83 -2 -93 26 -8 38 1 55 41 8 19 18 34
23 34 16 0 20 -28 6 -47 -18 -23 -18 -33 0 -33 34 0 46 67 17 93 -22 20 -36
21 -50 4z"/>
<path d="M6690 4775 c-76 -32 -76 -48 0 -76 44 -16 59 -26 55 -36 -3 -8 -5
-23 -5 -34 0 -16 -7 -19 -55 -19 -42 0 -55 -3 -55 -15 0 -12 14 -15 70 -15
l70 0 0 59 c0 50 -3 59 -20 64 -13 3 -20 14 -20 31 0 15 8 30 20 36 22 12 27
30 8 29 -7 0 -38 -11 -68 -24z m14 -39 c-3 -8 -13 -12 -25 -9 -16 5 -18 8 -7
14 20 13 38 11 32 -5z"/>
<path d="M6720 4558 c0 -6 7 -19 16 -29 33 -36 -17 -73 -70 -53 -19 7 -21 45
-4 62 6 6 8 15 5 19 -13 12 -39 -24 -39 -52 0 -55 68 -82 115 -45 28 22 34 48
17 79 -11 22 -40 35 -40 19z"/>
<path d="M6648 4368 c-17 -13 -21 -28 -19 -60 3 -49 96 -68 125 -26 9 12 16
32 16 44 0 25 -34 59 -50 49 -8 -5 -5 -13 9 -26 30 -28 24 -51 -16 -63 -44
-14 -82 31 -52 61 18 18 7 36 -13 21z"/>
<path d="M6630 4225 c0 -13 11 -15 65 -13 87 4 88 22 3 26 -57 2 -68 0 -68
-13z"/>
<path d="M6642 4178 c-14 -18 -17 -39 -8 -66 12 -37 56 -26 71 17 13 39 29 50
38 26 7 -18 -1 -45 -14 -45 -5 0 -9 -7 -9 -15 0 -19 14 -19 34 1 34 33 9 99
-34 92 -16 -2 -27 -13 -35 -37 -14 -43 -35 -53 -35 -17 0 14 5 26 10 26 6 0
10 7 10 15 0 18 -14 19 -28 3z"/>
<path d="M6703 4058 c-18 -23 -46 -89 -40 -94 10 -11 29 8 43 42 8 19 18 34
23 34 16 0 20 -28 6 -47 -18 -23 -18 -33 0 -33 17 0 35 30 35 59 0 39 -46 65
-67 39z"/>
<path d="M6650 4050 c0 -5 5 -10 10 -10 6 0 10 5 10 10 0 6 -4 10 -10 10 -5 0
-10 -4 -10 -10z"/>
<path d="M6720 3710 c0 -6 7 -18 15 -26 19 -20 19 -29 -1 -49 -36 -36 -103 3
-76 45 15 25 15 30 -1 30 -24 0 -39 -48 -25 -78 34 -69 153 -32 134 41 -6 27
-46 58 -46 37z"/>
<path d="M6640 3515 c-34 -41 0 -105 57 -105 61 0 96 66 55 103 -23 21 -32 21
-32 2 0 -8 4 -15 9 -15 12 0 22 -27 15 -44 -7 -18 -44 -25 -72 -15 -22 9 -32
59 -12 59 6 0 10 7 10 15 0 19 -14 19 -30 0z"/>
<path d="M6630 3375 c0 -13 12 -15 67 -13 42 2 68 8 71 16 3 9 -15 12 -67 12
-57 0 -71 -3 -71 -15z"/>
<path d="M6643 3328 c-17 -22 -21 -42 -12 -66 14 -37 59 -27 74 17 13 39 29
50 38 26 7 -18 -1 -45 -14 -45 -5 0 -9 -7 -9 -15 0 -20 13 -19 33 3 33 36 11
97 -33 90 -16 -2 -27 -13 -34 -35 -13 -39 -30 -47 -34 -15 -2 12 1 22 7 22 6
0 11 7 11 15 0 18 -14 20 -27 3z"/>
<path d="M6702 3207 c-6 -7 -15 -25 -21 -40 -6 -15 -15 -27 -21 -27 -13 0 -13
37 0 45 15 9 12 25 -5 25 -20 0 -35 -39 -25 -65 18 -50 63 -41 75 16 4 16 13
29 20 29 23 0 28 -20 11 -45 -20 -30 -20 -35 -1 -35 32 0 46 67 19 94 -19 19
-38 20 -52 3z"/>
<path d="M6690 3076 c-74 -30 -74 -46 -2 -74 57 -22 58 -23 54 -57 l-4 -35
-54 0 c-42 0 -54 -3 -54 -15 0 -13 12 -15 68 -13 l67 3 1 57 c2 48 -1 58 -17
63 -27 9 -26 61 1 68 22 6 28 27 8 27 -7 -1 -38 -11 -68 -24z m20 -36 c0 -5
-9 -10 -21 -10 -11 0 -17 5 -14 10 3 6 13 10 21 10 8 0 14 -4 14 -10z"/>
<path d="M6647 2857 c-25 -19 -26 -66 -1 -91 22 -22 87 -21 107 2 22 24 21 65
-1 85 -10 10 -22 17 -25 17 -12 0 -7 -21 8 -36 19 -20 19 -29 -1 -49 -20 -20
-63 -16 -78 7 -7 12 -6 24 4 42 16 30 10 41 -13 23z"/>
<path d="M6640 2665 c-34 -41 0 -105 57 -105 62 0 96 66 53 105 -26 24 -39 11
-15 -16 28 -30 9 -54 -41 -54 -35 0 -39 3 -42 28 -2 15 1 27 7 27 6 0 11 7 11
15 0 19 -14 19 -30 0z"/>
<path d="M6630 2530 c0 -6 30 -10 70 -10 40 0 70 4 70 10 0 6 -30 10 -70 10
-40 0 -70 -4 -70 -10z"/>
<path d="M6708 2489 c-9 -5 -19 -23 -23 -39 -4 -16 -11 -32 -16 -36 -15 -9
-23 27 -10 48 15 24 7 35 -13 19 -34 -29 -22 -91 18 -91 19 0 27 9 40 40 17
42 30 50 40 25 6 -18 -2 -45 -15 -45 -5 0 -9 -7 -9 -15 0 -20 13 -19 34 4 35
39 -3 114 -46 90z"/>
<path d="M6646 2357 c-41 -30 -8 -110 35 -86 11 5 19 14 19 19 0 5 5 21 10 36
10 25 12 26 27 11 15 -15 15 -18 -1 -42 -20 -30 -17 -39 8 -29 22 8 31 50 17
80 -17 37 -51 28 -74 -18 -10 -21 -23 -38 -28 -38 -13 0 -11 48 3 52 6 2 9 10
7 16 -3 10 -8 10 -23 -1z"/>
<path d="M6683 2225 c-29 -13 -53 -30 -53 -37 0 -8 25 -23 54 -34 30 -10 55
-22 55 -26 5 -67 4 -68 -54 -68 -30 0 -55 -4 -55 -10 0 -6 30 -10 70 -10 l71
0 -2 55 c-2 43 -6 56 -21 60 -26 9 -25 62 2 70 11 3 20 11 20 16 0 15 -32 9
-87 -16z m27 -35 c0 -5 -9 -10 -20 -10 -11 0 -20 5 -20 10 0 6 9 10 20 10 11
0 20 -4 20 -10z"/>
<path d="M6648 2008 c-17 -13 -21 -28 -19 -60 3 -49 96 -68 125 -26 21 30 20
61 -2 81 -23 21 -32 21 -32 2 0 -8 4 -15 9 -15 12 0 22 -27 15 -44 -8 -20 -50
-29 -74 -16 -22 12 -26 40 -9 57 18 18 7 36 -13 21z"/>
</g>
</svg>
